<svg xmlns="http://www.w3.org/2000/svg" xmlns:xlink="http://www.w3.org/1999/xlink" width="800" zoomAndPan="magnify" viewBox="0 0 600 149.999998" height="200" preserveAspectRatio="xMidYMid meet" version="1.0"><defs><g/></defs><rect x="-60" width="720" fill="#ffffff" y="-15" height="179.999997" fill-opacity="1"/><rect x="-60" width="720" fill="#ffffff" y="-15" height="179.999997" fill-opacity="1"/><g fill="#000000" fill-opacity="1"><g transform="translate(111.02827, 111.11551)"><g><path d="M 9.4375 32.078125 C 9.132812 32.097656 8.757812 31.972656 8.3125 31.703125 C 7.613281 31.253906 7.273438 30.753906 7.296875 30.203125 C 7.328125 29.660156 7.5 29.019531 7.8125 28.28125 C 7.957031 27.84375 8.054688 27.53125 8.109375 27.34375 C 8.992188 24.226562 10.066406 21.273438 11.328125 18.484375 C 12.585938 15.703125 13.78125 13.234375 14.90625 11.078125 C 16.769531 7.429688 16.894531 3.082031 15.28125 -1.96875 C 13.894531 -6.070312 11.1875 -9.195312 7.15625 -11.34375 C 6.957031 -11.394531 6.671875 -11.53125 6.296875 -11.75 C 5.597656 -12.0625 5.039062 -12.351562 4.625 -12.625 C 4.207031 -12.90625 3.984375 -13.316406 3.953125 -13.859375 C 3.898438 -14.535156 4.09375 -14.992188 4.53125 -15.234375 C 4.976562 -15.472656 5.53125 -15.707031 6.1875 -15.9375 L 6.734375 -16.078125 C 13.128906 -18.273438 19.265625 -19.578125 25.140625 -19.984375 C 25.503906 -20.003906 25.988281 -20.035156 26.59375 -20.078125 C 27.207031 -20.117188 27.515625 -20.140625 27.515625 -20.140625 C 30.046875 -20.316406 31.992188 -21.554688 33.359375 -23.859375 C 34.492188 -25.804688 35.617188 -27.757812 36.734375 -29.71875 C 37.847656 -31.6875 38.9375 -33.65625 40 -35.625 C 43.414062 -41.695312 46.914062 -47.789062 50.5 -53.90625 C 54.082031 -60.019531 57.988281 -65.90625 62.21875 -71.5625 C 62.988281 -72.570312 63.796875 -73.546875 64.640625 -74.484375 C 65.492188 -75.429688 66.507812 -76.191406 67.6875 -76.765625 C 68.28125 -77.109375 68.8125 -77.296875 69.28125 -77.328125 C 70.613281 -77.421875 71.679688 -76.519531 72.484375 -74.625 C 73.222656 -72.863281 73.582031 -71.175781 73.5625 -69.5625 C 73.550781 -67.945312 73.484375 -66.347656 73.359375 -64.765625 C 72.578125 -56.742188 71.3125 -48.929688 69.5625 -41.328125 C 67.8125 -33.734375 66.007812 -26.253906 64.15625 -18.890625 C 63.664062 -17.210938 63.21875 -15.550781 62.8125 -13.90625 C 62.40625 -12.269531 61.992188 -10.582031 61.578125 -8.84375 C 60.484375 -4.570312 59.335938 -0.300781 58.140625 3.96875 C 56.941406 8.25 55.738281 12.5625 54.53125 16.90625 C 54.476562 17.082031 54.40625 17.359375 54.3125 17.734375 C 54.28125 18.109375 54.195312 18.476562 54.0625 18.84375 C 53.9375 19.21875 53.722656 19.414062 53.421875 19.4375 C 53.179688 19.445312 52.875 19.375 52.5 19.21875 C 52.175781 19.0625 51.945312 18.898438 51.8125 18.734375 C 51.6875 18.492188 51.671875 18.203125 51.765625 17.859375 C 51.859375 17.523438 51.960938 17.234375 52.078125 16.984375 C 52.160156 16.546875 52.226562 16.238281 52.28125 16.0625 C 53.351562 9.65625 54.65625 3.292969 56.1875 -3.015625 C 57.726562 -9.328125 59.285156 -15.507812 60.859375 -21.5625 C 61.972656 -25.644531 63.050781 -29.773438 64.09375 -33.953125 C 65.144531 -38.128906 66.132812 -42.320312 67.0625 -46.53125 C 67.25 -47.332031 67.535156 -48.65625 67.921875 -50.5 C 68.304688 -52.351562 68.707031 -54.453125 69.125 -56.796875 C 69.550781 -59.140625 69.890625 -61.472656 70.140625 -63.796875 C 70.398438 -66.117188 70.546875 -68.148438 70.578125 -69.890625 C 70.609375 -71.628906 70.414062 -72.816406 70 -73.453125 C 69.8125 -73.679688 69.59375 -73.847656 69.34375 -73.953125 L 69.25 -73.953125 L 68.796875 -74.015625 C 68.492188 -73.992188 68.222656 -73.894531 67.984375 -73.71875 C 67.753906 -73.550781 67.613281 -73.4375 67.5625 -73.375 C 66.875 -72.78125 66.265625 -72.128906 65.734375 -71.421875 C 65.203125 -70.710938 64.6875 -70.007812 64.1875 -69.3125 C 63.90625 -68.9375 63.628906 -68.554688 63.359375 -68.171875 C 63.085938 -67.785156 62.816406 -67.398438 62.546875 -67.015625 C 60.578125 -64.503906 58.601562 -61.8125 56.625 -58.9375 C 54.695312 -56.007812 52.863281 -53.066406 51.125 -50.109375 C 49.382812 -47.160156 47.753906 -44.359375 46.234375 -41.703125 L 44.390625 -38.296875 C 42.804688 -35.503906 41.21875 -32.695312 39.625 -29.875 C 38.03125 -27.0625 36.382812 -24.296875 34.6875 -21.578125 L 34.359375 -21 L 35.171875 -21.0625 C 38.535156 -21.101562 41.660156 -21.085938 44.546875 -21.015625 C 47.429688 -20.953125 50.320312 -20.6875 53.21875 -20.21875 C 53.34375 -20.164062 53.492188 -20.144531 53.671875 -20.15625 C 53.847656 -20.164062 54 -20.175781 54.125 -20.1875 C 54.425781 -20.144531 54.695312 -20.113281 54.9375 -20.09375 C 55.1875 -20.082031 55.410156 -20 55.609375 -19.84375 C 55.796875 -19.726562 55.9375 -19.460938 56.03125 -19.046875 C 56.132812 -18.441406 55.851562 -18.117188 55.1875 -18.078125 C 55 -18.066406 54.796875 -18.066406 54.578125 -18.078125 C 54.367188 -18.097656 54.140625 -18.128906 53.890625 -18.171875 L 53.546875 -18.25 C 53.046875 -18.320312 52.519531 -18.382812 51.96875 -18.4375 C 51.425781 -18.5 50.867188 -18.597656 50.296875 -18.734375 C 49.566406 -18.804688 48.816406 -18.90625 48.046875 -19.03125 C 47.285156 -19.164062 46.539062 -19.238281 45.8125 -19.25 C 43.96875 -19.414062 42.320312 -19.453125 40.875 -19.359375 C 35.070312 -18.953125 31.125 -16.25 29.03125 -11.25 C 28.15625 -9.113281 27.238281 -7.023438 26.28125 -4.984375 C 25.320312 -2.941406 24.335938 -0.902344 23.328125 1.125 C 21.566406 4.707031 19.847656 8.378906 18.171875 12.140625 C 16.492188 15.898438 15.097656 19.820312 13.984375 23.90625 C 13.742188 24.90625 13.378906 25.863281 12.890625 26.78125 C 12.410156 27.695312 11.929688 28.5625 11.453125 29.375 C 11.335938 29.570312 11.207031 29.851562 11.0625 30.21875 C 10.90625 30.664062 10.703125 31.078125 10.453125 31.453125 C 10.203125 31.835938 9.863281 32.046875 9.4375 32.078125 Z M 29.1875 -18.171875 C 27.789062 -18.191406 26.425781 -18.15625 25.09375 -18.0625 C 22.125 -17.851562 19.328125 -17.429688 16.703125 -16.796875 C 14.078125 -16.171875 11.503906 -15.492188 8.984375 -14.765625 C 8.460938 -14.609375 8.113281 -14.429688 7.9375 -14.234375 C 7.769531 -14.035156 7.695312 -13.84375 7.71875 -13.65625 C 7.726562 -13.476562 7.816406 -13.242188 7.984375 -12.953125 C 8.160156 -12.671875 8.535156 -12.332031 9.109375 -11.9375 C 14.015625 -8.632812 17.054688 -3.832031 18.234375 2.46875 L 18.40625 3.625 L 29.921875 -18.15625 Z M 29.1875 -18.171875 "/></g></g></g><g fill="#000000" fill-opacity="1"><g transform="translate(183.166778, 106.082276)"><g><path d="M 11.1875 -3.078125 C 11.539062 -2.367188 11.46875 -1.566406 10.96875 -0.671875 C 10.332031 0.523438 9.53125 1.15625 8.5625 1.21875 L 8.296875 1.171875 C 6.585938 1.160156 5.472656 0.472656 4.953125 -0.890625 C 4.722656 -1.546875 4.769531 -2.191406 5.09375 -2.828125 C 5.800781 -3.960938 6.734375 -4.566406 7.890625 -4.640625 C 8.429688 -4.679688 9.015625 -4.570312 9.640625 -4.3125 C 10.378906 -4.007812 10.894531 -3.597656 11.1875 -3.078125 Z M 11.1875 -3.078125 "/></g></g></g><g fill="#000000" fill-opacity="1"><g transform="translate(199.590765, 104.936345)"><g><path d="M 53.265625 -20.765625 C 54.710938 -19.109375 55.863281 -17.195312 56.71875 -15.03125 C 57.570312 -12.875 58.132812 -10.707031 58.40625 -8.53125 C 58.550781 -7.34375 58.632812 -6.164062 58.65625 -5 C 58.644531 -3.351562 58.5625 -1.707031 58.40625 -0.0625 C 58.25 1.582031 57.976562 3.21875 57.59375 4.84375 C 56.945312 7.675781 56 10.425781 54.75 13.09375 C 53.507812 15.757812 52 18.25 50.21875 20.5625 C 48.613281 22.75 46.828125 24.804688 44.859375 26.734375 C 42.898438 28.660156 40.851562 30.460938 38.71875 32.140625 C 37.914062 32.796875 37.09375 33.425781 36.25 34.03125 C 35.40625 34.632812 34.550781 35.238281 33.6875 35.84375 C 29.632812 38.75 25.304688 40.363281 20.703125 40.6875 C 20.703125 40.6875 20.566406 40.675781 20.296875 40.65625 C 20.023438 40.644531 19.796875 40.644531 19.609375 40.65625 C 15.429688 40.832031 12.101562 39.703125 9.625 37.265625 C 7.207031 34.941406 6.171875 31.882812 6.515625 28.09375 C 6.828125 24.71875 7.835938 21.828125 9.546875 19.421875 C 11.265625 17.023438 13.1875 14.878906 15.3125 12.984375 C 26.039062 3.046875 38.207031 -5.554688 51.8125 -12.828125 C 54.03125 -14.015625 55.085938 -15.335938 54.984375 -16.796875 C 54.890625 -18.242188 53.523438 -20.03125 50.890625 -22.15625 C 47.679688 -24.664062 44.375 -26.300781 40.96875 -27.0625 C 37.570312 -27.832031 34.132812 -28.335938 30.65625 -28.578125 C 29.488281 -28.679688 28.34375 -28.753906 27.21875 -28.796875 C 26.09375 -28.835938 24.953125 -28.882812 23.796875 -28.9375 C 22.265625 -28.945312 20.722656 -28.988281 19.171875 -29.0625 C 17.617188 -29.132812 16.046875 -29.238281 14.453125 -29.375 C 12.128906 -29.632812 10.523438 -30.398438 9.640625 -31.671875 C 8.691406 -33.066406 8.757812 -34.710938 9.84375 -36.609375 C 10.445312 -37.628906 11.207031 -38.535156 12.125 -39.328125 C 27.96875 -53.679688 44.570312 -64.445312 61.9375 -71.625 C 65.132812 -72.925781 68.125 -73.675781 70.90625 -73.875 L 71.625 -73.921875 C 74.945312 -74.097656 77.460938 -73.335938 79.171875 -71.640625 C 80.734375 -70.171875 81.421875 -68.179688 81.234375 -65.671875 C 80.941406 -62.015625 80.15625 -58.648438 78.875 -55.578125 C 77.601562 -52.503906 76.09375 -49.734375 74.34375 -47.265625 C 72.601562 -44.804688 70.890625 -42.601562 69.203125 -40.65625 C 68.816406 -40.207031 68.53125 -39.976562 68.34375 -39.96875 C 68.164062 -39.957031 67.972656 -40.039062 67.765625 -40.21875 C 67.265625 -40.59375 67.046875 -40.9375 67.109375 -41.25 C 67.171875 -41.5625 67.3125 -41.929688 67.53125 -42.359375 L 70.140625 -47.015625 C 70.992188 -48.597656 71.867188 -50.164062 72.765625 -51.71875 C 73.660156 -53.269531 74.507812 -54.832031 75.3125 -56.40625 C 76.007812 -57.726562 76.691406 -59.21875 77.359375 -60.875 C 78.035156 -62.539062 78.425781 -64.382812 78.53125 -66.40625 C 78.644531 -68.289062 78.269531 -69.691406 77.40625 -70.609375 C 76.5 -71.515625 74.953125 -71.957031 72.765625 -71.9375 C 72.285156 -71.945312 71.769531 -71.9375 71.21875 -71.90625 C 68.738281 -71.726562 66.460938 -71.21875 64.390625 -70.375 C 62.328125 -69.53125 60.378906 -68.648438 58.546875 -67.734375 C 48.296875 -62.390625 38.734375 -56.191406 29.859375 -49.140625 C 28.242188 -47.878906 26.671875 -46.628906 25.140625 -45.390625 C 23.617188 -44.160156 22.171875 -42.921875 20.796875 -41.671875 C 19.203125 -40.273438 17.78125 -38.894531 16.53125 -37.53125 C 16.300781 -37.269531 16.015625 -36.976562 15.671875 -36.65625 C 15.390625 -36.394531 15.101562 -36.117188 14.8125 -35.828125 C 14.53125 -35.535156 14.28125 -35.226562 14.0625 -34.90625 C 13.789062 -34.582031 13.585938 -34.257812 13.453125 -33.9375 C 13.328125 -33.625 13.363281 -33.359375 13.5625 -33.140625 C 13.707031 -32.835938 13.960938 -32.640625 14.328125 -32.546875 C 14.703125 -32.453125 15.039062 -32.382812 15.34375 -32.34375 L 17.078125 -32.1875 C 18.003906 -32.132812 18.9375 -32.082031 19.875 -32.03125 C 20.820312 -31.976562 21.785156 -31.890625 22.765625 -31.765625 C 24.109375 -31.617188 25.53125 -31.472656 27.03125 -31.328125 C 28.539062 -31.191406 30.0625 -31.03125 31.59375 -30.84375 C 34.476562 -30.375 37.363281 -29.738281 40.25 -28.9375 C 43.132812 -28.132812 45.816406 -26.90625 48.296875 -25.25 C 49.191406 -24.644531 50.078125 -23.960938 50.953125 -23.203125 C 51.828125 -22.441406 52.597656 -21.628906 53.265625 -20.765625 Z M 56.40625 -12.234375 C 56.082031 -12.515625 55.707031 -12.644531 55.28125 -12.625 C 54.863281 -12.59375 54.4375 -12.453125 54 -12.203125 C 53.5625 -11.960938 53.171875 -11.707031 52.828125 -11.4375 L 52.46875 -11.234375 C 51.820312 -10.878906 51.191406 -10.515625 50.578125 -10.140625 C 49.972656 -9.765625 49.378906 -9.40625 48.796875 -9.0625 C 47.566406 -8.300781 46.351562 -7.546875 45.15625 -6.796875 C 43.96875 -6.054688 42.796875 -5.304688 41.640625 -4.546875 C 36.691406 -1.273438 32.179688 2.050781 28.109375 5.4375 C 23.566406 9.207031 19.460938 13.132812 15.796875 17.21875 C 12.410156 20.976562 10.59375 24.9375 10.34375 29.09375 C 10.15625 31.726562 10.804688 33.75 12.296875 35.15625 C 13.734375 36.570312 15.859375 37.3125 18.671875 37.375 C 18.960938 37.40625 19.289062 37.40625 19.65625 37.375 C 20.863281 37.289062 22.035156 37.023438 23.171875 36.578125 C 37.171875 31.722656 47.648438 21.628906 54.609375 6.296875 C 55.078125 5.242188 55.59375 3.984375 56.15625 2.515625 C 56.726562 1.046875 57.140625 -0.519531 57.390625 -2.1875 C 57.722656 -4.394531 57.789062 -6.398438 57.59375 -8.203125 C 57.5625 -8.679688 57.492188 -9.207031 57.390625 -9.78125 C 57.296875 -10.363281 57.132812 -10.945312 56.90625 -11.53125 C 56.832031 -11.832031 56.664062 -12.066406 56.40625 -12.234375 Z M 56.40625 -12.234375 "/></g></g></g><g fill="#000000" fill-opacity="1"><g transform="translate(268.28114, 100.143693)"><g><path d="M 35.625 -16.0625 C 35.757812 -15.894531 35.789062 -15.640625 35.71875 -15.296875 C 35.644531 -14.960938 35.46875 -14.664062 35.1875 -14.40625 C 32.800781 -12.175781 30.238281 -9.957031 27.5 -7.75 C 24.757812 -5.550781 21.78125 -3.519531 18.5625 -1.65625 C 15.351562 0.207031 11.847656 1.691406 8.046875 2.796875 C 6.972656 3.117188 5.953125 3.316406 4.984375 3.390625 C 2.566406 3.554688 0.382812 2.859375 -1.5625 1.296875 C -4.320312 -0.941406 -5.15625 -3.863281 -4.0625 -7.46875 C -1.195312 -16.914062 5.019531 -24.40625 14.59375 -29.9375 C 15.695312 -30.613281 16.828125 -30.992188 17.984375 -31.078125 C 19.785156 -31.203125 21.410156 -30.523438 22.859375 -29.046875 C 23.910156 -28.078125 24.5 -27.066406 24.625 -26.015625 C 24.757812 -24.960938 24.691406 -23.96875 24.421875 -23.03125 C 24.148438 -22.101562 23.820312 -21.359375 23.4375 -20.796875 C 23.007812 -19.960938 22.5 -19.234375 21.90625 -18.609375 C 21.320312 -17.992188 20.765625 -17.488281 20.234375 -17.09375 L 20.078125 -16.90625 C 19.898438 -16.769531 19.679688 -16.585938 19.421875 -16.359375 C 19.171875 -16.128906 18.921875 -16.003906 18.671875 -15.984375 C 18.421875 -16.023438 18.234375 -16.101562 18.109375 -16.21875 C 17.910156 -16.507812 17.953125 -17 18.234375 -17.6875 C 18.523438 -18.375 18.898438 -19.082031 19.359375 -19.8125 C 19.828125 -20.550781 20.226562 -21.171875 20.5625 -21.671875 C 21.21875 -22.578125 21.570312 -23.117188 21.625 -23.296875 C 21.613281 -23.484375 21.65625 -23.703125 21.75 -23.953125 C 21.90625 -24.378906 21.992188 -24.867188 22.015625 -25.421875 C 22.035156 -25.972656 21.726562 -26.5 21.09375 -27 C 20.457031 -27.445312 19.804688 -27.648438 19.140625 -27.609375 C 18.535156 -27.566406 17.851562 -27.300781 17.09375 -26.8125 C 8.757812 -21.613281 2.878906 -14.394531 -0.546875 -5.15625 C -1.359375 -2.914062 -0.929688 -1.179688 0.734375 0.046875 C 1.953125 0.992188 3.46875 1.40625 5.28125 1.28125 C 5.757812 1.25 6.242188 1.179688 6.734375 1.078125 C 10.023438 0.484375 12.988281 -0.523438 15.625 -1.953125 C 18.269531 -3.390625 20.546875 -4.78125 22.453125 -6.125 C 24.367188 -7.414062 26.503906 -9.054688 28.859375 -11.046875 C 29.203125 -11.316406 29.53125 -11.597656 29.84375 -11.890625 C 30.164062 -12.179688 30.46875 -12.457031 30.75 -12.71875 C 31.3125 -13.3125 31.910156 -13.875 32.546875 -14.40625 C 33.191406 -14.9375 33.851562 -15.40625 34.53125 -15.8125 C 34.832031 -16.007812 35.101562 -16.117188 35.34375 -16.140625 C 35.457031 -16.148438 35.550781 -16.125 35.625 -16.0625 Z M 35.625 -16.0625 "/></g></g></g><g fill="#000000" fill-opacity="1"><g transform="translate(302.943924, 97.725208)"><g><path d="M 54.5625 -17.765625 C 55.050781 -16.941406 54.9375 -15.957031 54.21875 -14.8125 C 53.507812 -13.675781 52.878906 -12.722656 52.328125 -11.953125 C 51.992188 -11.566406 51.773438 -11.273438 51.671875 -11.078125 C 46.046875 -2.734375 39.601562 3.003906 32.34375 6.140625 C 31.800781 6.359375 31.234375 6.578125 30.640625 6.796875 C 30.054688 7.023438 29.4375 7.160156 28.78125 7.203125 C 27.445312 7.296875 26.164062 6.898438 24.9375 6.015625 C 23.664062 5.128906 22.878906 4.070312 22.578125 2.84375 C 22.285156 1.625 22.09375 0.316406 22 -1.078125 C 21.863281 -3.972656 22.207031 -6.679688 23.03125 -9.203125 C 23.851562 -11.734375 24.753906 -14.21875 25.734375 -16.65625 L 26.359375 -18.25 C 26.523438 -18.5625 26.675781 -19.023438 26.8125 -19.640625 C 26.945312 -20.265625 26.796875 -20.742188 26.359375 -21.078125 C 26.035156 -21.304688 25.660156 -21.40625 25.234375 -21.375 C 24.328125 -21.3125 23.285156 -20.765625 22.109375 -19.734375 C 20.929688 -18.703125 19.894531 -17.707031 19 -16.75 L 18.8125 -16.546875 C 18.125 -15.890625 17.488281 -15.1875 16.90625 -14.4375 C 16.320312 -13.695312 15.753906 -12.972656 15.203125 -12.265625 C 14.867188 -11.878906 14.515625 -11.476562 14.140625 -11.0625 C 13.773438 -10.644531 13.425781 -10.210938 13.09375 -9.765625 L 11.3125 -7.71875 C 10.238281 -6.488281 9.171875 -5.242188 8.109375 -3.984375 C 7.046875 -2.734375 5.945312 -1.488281 4.8125 -0.25 C 4.476562 0.144531 4.109375 0.492188 3.703125 0.796875 C 3.296875 1.097656 2.820312 1.265625 2.28125 1.296875 C 1.726562 1.335938 1.171875 1.195312 0.609375 0.875 C -0.335938 0.394531 -0.898438 -0.21875 -1.078125 -0.96875 C -1.253906 -1.726562 -1.335938 -2.523438 -1.328125 -3.359375 C -1.398438 -7.066406 -0.960938 -10.625 -0.015625 -14.03125 C 0.929688 -17.445312 1.925781 -20.800781 2.96875 -24.09375 C 3.375 -25.21875 4.140625 -27.066406 5.265625 -29.640625 C 6.398438 -32.210938 7.742188 -35.175781 9.296875 -38.53125 C 10.859375 -41.894531 12.515625 -45.398438 14.265625 -49.046875 C 16.023438 -52.703125 17.710938 -56.195312 19.328125 -59.53125 C 20.953125 -62.863281 22.359375 -65.785156 23.546875 -68.296875 C 24.742188 -70.816406 25.601562 -72.644531 26.125 -73.78125 C 26.925781 -75.40625 27.753906 -77.023438 28.609375 -78.640625 C 29.472656 -80.253906 30.394531 -81.820312 31.375 -83.34375 C 31.707031 -83.851562 32.171875 -84.613281 32.765625 -85.625 C 33.367188 -86.644531 34.050781 -87.578125 34.8125 -88.421875 C 35.582031 -89.265625 36.359375 -89.65625 37.140625 -89.59375 C 38.003906 -89.59375 38.441406 -89.238281 38.453125 -88.53125 C 38.472656 -87.832031 38.332031 -87.050781 38.03125 -86.1875 C 37.613281 -85.113281 37.109375 -84.070312 36.515625 -83.0625 C 35.921875 -82.0625 35.539062 -81.425781 35.375 -81.15625 C 34.21875 -79.4375 32.78125 -76.953125 31.0625 -73.703125 C 29.34375 -70.460938 27.472656 -66.765625 25.453125 -62.609375 C 23.429688 -58.453125 21.375 -54.140625 19.28125 -49.671875 C 17.195312 -45.210938 15.238281 -40.863281 13.40625 -36.625 C 11.570312 -32.394531 9.96875 -28.5625 8.59375 -25.125 C 7.226562 -21.6875 6.28125 -18.945312 5.75 -16.90625 C 5.164062 -14.800781 4.492188 -12.6875 3.734375 -10.5625 C 2.972656 -8.445312 2.457031 -6.28125 2.1875 -4.0625 C 2.125 -3.28125 2.253906 -2.75 2.578125 -2.46875 C 2.765625 -2.289062 3.003906 -2.210938 3.296875 -2.234375 C 3.597656 -2.253906 3.988281 -2.378906 4.46875 -2.609375 C 5.164062 -3.015625 5.769531 -3.503906 6.28125 -4.078125 C 6.789062 -4.660156 7.265625 -5.269531 7.703125 -5.90625 C 7.867188 -6.164062 8.046875 -6.421875 8.234375 -6.671875 C 8.429688 -6.929688 8.648438 -7.195312 8.890625 -7.46875 C 9.265625 -7.914062 9.648438 -8.378906 10.046875 -8.859375 C 10.441406 -9.347656 10.832031 -9.847656 11.21875 -10.359375 C 11.664062 -10.867188 12.128906 -11.414062 12.609375 -12 C 13.085938 -12.582031 13.554688 -13.128906 14.015625 -13.640625 L 14.25 -13.953125 C 15.71875 -15.628906 17.242188 -17.296875 18.828125 -18.953125 C 20.410156 -20.617188 22.128906 -22.125 23.984375 -23.46875 C 24.335938 -23.738281 24.726562 -24.019531 25.15625 -24.3125 C 25.59375 -24.613281 26.085938 -24.785156 26.640625 -24.828125 C 27.234375 -24.867188 27.816406 -24.703125 28.390625 -24.328125 C 29.984375 -23.347656 30.492188 -21.738281 29.921875 -19.5 C 29.503906 -17.644531 29.050781 -15.832031 28.5625 -14.0625 C 28.082031 -12.300781 27.597656 -10.582031 27.109375 -8.90625 L 26.734375 -7.609375 C 26.335938 -6.242188 25.960938 -4.847656 25.609375 -3.421875 C 25.253906 -2.003906 25.035156 -0.527344 24.953125 1 C 24.960938 2.695312 25.359375 3.910156 26.140625 4.640625 C 26.910156 5.328125 27.992188 5.617188 29.390625 5.515625 C 29.691406 5.492188 30.019531 5.472656 30.375 5.453125 C 31.9375 5.160156 33.347656 4.679688 34.609375 4.015625 C 35.867188 3.347656 36.988281 2.644531 37.96875 1.90625 C 41.207031 -0.445312 44.082031 -3.257812 46.59375 -6.53125 C 47.332031 -7.425781 48 -8.378906 48.59375 -9.390625 C 49.1875 -10.410156 49.75 -11.429688 50.28125 -12.453125 C 50.664062 -13.140625 51.046875 -13.832031 51.421875 -14.53125 C 51.796875 -15.226562 52.171875 -15.925781 52.546875 -16.625 C 52.722656 -16.8125 52.960938 -17.066406 53.265625 -17.390625 C 53.578125 -17.710938 53.882812 -17.882812 54.1875 -17.90625 C 54.300781 -17.914062 54.425781 -17.867188 54.5625 -17.765625 Z M 54.5625 -17.765625 "/></g></g></g><g fill="#000000" fill-opacity="1"><g transform="translate(356.662149, 93.97719)"><g><path d="M 21.671875 -31.6875 C 20.953125 -31.570312 20.304688 -31.707031 19.734375 -32.09375 C 19.171875 -32.488281 18.769531 -33.046875 18.53125 -33.765625 C 18.164062 -34.585938 18.179688 -35.253906 18.578125 -35.765625 C 18.972656 -36.273438 19.492188 -36.585938 20.140625 -36.703125 C 20.796875 -36.867188 21.457031 -36.773438 22.125 -36.421875 C 22.789062 -36.078125 23.269531 -35.546875 23.5625 -34.828125 C 23.914062 -34.003906 23.882812 -33.300781 23.46875 -32.71875 C 23.050781 -32.144531 22.453125 -31.800781 21.671875 -31.6875 Z M 14.90625 -32.03125 C 14.289062 -31.988281 13.726562 -32.164062 13.21875 -32.5625 C 12.71875 -32.957031 12.390625 -33.453125 12.234375 -34.046875 C 12.046875 -34.890625 12.175781 -35.535156 12.625 -35.984375 C 13.082031 -36.441406 13.703125 -36.726562 14.484375 -36.84375 C 15.023438 -36.875 15.488281 -36.722656 15.875 -36.390625 C 16.269531 -36.054688 16.570312 -35.65625 16.78125 -35.1875 C 16.832031 -34.394531 16.742188 -33.703125 16.515625 -33.109375 C 16.285156 -32.515625 15.75 -32.15625 14.90625 -32.03125 Z M 50.1875 -17.921875 C 50.4375 -17.742188 50.566406 -17.566406 50.578125 -17.390625 C 50.660156 -17.210938 50.5 -16.898438 50.09375 -16.453125 C 47.507812 -13.535156 44.625 -10.71875 41.4375 -8 C 38.25 -5.28125 34.457031 -3.160156 30.0625 -1.640625 C 29.0625 -1.265625 28.078125 -1.046875 27.109375 -0.984375 C 25.347656 -0.859375 23.828125 -1.300781 22.546875 -2.3125 C 20.691406 -3.695312 19.421875 -6.21875 18.734375 -9.875 L 18.59375 -10.515625 L 16.109375 -8.140625 C 15.328125 -7.347656 14.535156 -6.5625 13.734375 -5.78125 C 12.929688 -5 12.128906 -4.25 11.328125 -3.53125 C 9.285156 -1.625 7.015625 -0.183594 4.515625 0.78125 C 3.742188 1.070312 3.085938 1.238281 2.546875 1.28125 C 1.453125 1.351562 0.460938 1.054688 -0.421875 0.390625 C -2.035156 -0.773438 -2.8125 -2.269531 -2.75 -4.09375 C -2.425781 -11.601562 0.351562 -19.210938 5.59375 -26.921875 C 5.976562 -27.554688 6.414062 -27.890625 6.90625 -27.921875 C 7.269531 -27.953125 7.640625 -27.828125 8.015625 -27.546875 C 8.460938 -27.210938 8.664062 -26.863281 8.625 -26.5 C 8.59375 -26.132812 8.472656 -25.703125 8.265625 -25.203125 C 7.921875 -24.265625 7.519531 -23.304688 7.0625 -22.328125 C 6.613281 -21.359375 6.148438 -20.367188 5.671875 -19.359375 C 4.503906 -16.847656 3.40625 -14.296875 2.375 -11.703125 C 1.34375 -9.109375 0.804688 -6.34375 0.765625 -3.40625 C 0.785156 -3.175781 0.820312 -2.910156 0.875 -2.609375 C 0.925781 -2.316406 1.078125 -2.054688 1.328125 -1.828125 C 1.648438 -1.546875 2 -1.390625 2.375 -1.359375 C 2.5625 -1.367188 2.742188 -1.378906 2.921875 -1.390625 C 3.578125 -1.441406 4.210938 -1.625 4.828125 -1.9375 C 5.441406 -2.25 6.015625 -2.578125 6.546875 -2.921875 C 13.773438 -7.316406 18.625 -12.757812 21.09375 -19.25 C 21.144531 -19.375 21.191406 -19.53125 21.234375 -19.71875 C 21.285156 -19.90625 21.335938 -20.085938 21.390625 -20.265625 C 21.523438 -20.835938 21.695312 -21.375 21.90625 -21.875 C 22.113281 -22.375 22.457031 -22.640625 22.9375 -22.671875 C 23.300781 -22.691406 23.707031 -22.566406 24.15625 -22.296875 C 24.71875 -22.035156 25.109375 -21.726562 25.328125 -21.375 C 25.535156 -20.957031 25.578125 -20.53125 25.453125 -20.09375 C 25.328125 -19.65625 25.160156 -19.222656 24.953125 -18.796875 C 24.910156 -18.535156 24.847656 -18.3125 24.765625 -18.125 C 24.679688 -17.945312 24.617188 -17.769531 24.578125 -17.59375 C 24.429688 -17.082031 24.285156 -16.5625 24.140625 -16.03125 C 23.992188 -15.507812 23.847656 -15.003906 23.703125 -14.515625 C 23.410156 -13.453125 23.132812 -12.363281 22.875 -11.25 C 22.613281 -10.144531 22.460938 -9.015625 22.421875 -7.859375 C 22.367188 -6.085938 22.757812 -4.804688 23.59375 -4.015625 C 24.445312 -3.285156 25.84375 -2.957031 27.78125 -3.03125 C 29.832031 -3.175781 31.617188 -3.648438 33.140625 -4.453125 C 34.671875 -5.265625 36.101562 -6.140625 37.4375 -7.078125 C 42.375 -10.460938 46.175781 -13.859375 48.84375 -17.265625 C 48.90625 -17.335938 48.992188 -17.46875 49.109375 -17.65625 C 49.328125 -17.96875 49.5 -18.128906 49.625 -18.140625 C 49.738281 -18.148438 49.925781 -18.078125 50.1875 -17.921875 Z M 50.1875 -17.921875 "/></g></g></g><g fill="#000000" fill-opacity="1"><g transform="translate(405.571151, 90.56472)"><g><path d="M 33.265625 -81.390625 C 34.035156 -80.773438 34.363281 -80.171875 34.25 -79.578125 C 34.144531 -78.992188 33.84375 -78.316406 33.34375 -77.546875 C 32.664062 -76.660156 32.039062 -75.707031 31.46875 -74.6875 C 30.90625 -73.675781 30.328125 -72.691406 29.734375 -71.734375 C 29.679688 -71.671875 29.644531 -71.609375 29.625 -71.546875 C 29.601562 -71.492188 29.5625 -71.429688 29.5 -71.359375 C 26.550781 -66.410156 23.765625 -61.441406 21.140625 -56.453125 C 15.242188 -45.171875 10.046875 -33.414062 5.546875 -21.1875 C 1.046875 -8.957031 -2.363281 3.59375 -4.6875 16.46875 C -6.257812 25.332031 -6.707031 33.359375 -6.03125 40.546875 C -6.007812 40.847656 -6.019531 41.15625 -6.0625 41.46875 C -6.007812 42.125 -5.929688 42.75 -5.828125 43.34375 C -5.722656 43.945312 -5.410156 44.476562 -4.890625 44.9375 C -4.234375 45.625 -3.171875 46.003906 -1.703125 46.078125 C -1.460938 46.054688 -1.242188 46.164062 -1.046875 46.40625 C -0.734375 46.625 -0.523438 46.972656 -0.421875 47.453125 C -0.328125 47.992188 -0.40625 48.363281 -0.65625 48.5625 C -0.914062 48.757812 -1.226562 48.867188 -1.59375 48.890625 L -1.6875 48.90625 C -5.007812 49.132812 -7.265625 47.707031 -8.453125 44.625 C -9.066406 42.976562 -9.410156 41.363281 -9.484375 39.78125 C -9.566406 38.195312 -9.570312 36.648438 -9.5 35.140625 L -9.46875 34.21875 C -9.3125 25.082031 -8.273438 16.175781 -6.359375 7.5 C -4.453125 -1.164062 -2.023438 -9.628906 0.921875 -17.890625 C 3.878906 -26.148438 6.96875 -34.191406 10.1875 -42.015625 C 12.945312 -48.660156 15.789062 -55.226562 18.71875 -61.71875 C 21.644531 -68.21875 25.34375 -74.265625 29.8125 -79.859375 C 29.875 -79.992188 30.007812 -80.21875 30.21875 -80.53125 C 30.4375 -80.851562 30.671875 -81.160156 30.921875 -81.453125 C 31.179688 -81.742188 31.492188 -81.898438 31.859375 -81.921875 C 32.222656 -81.941406 32.691406 -81.765625 33.265625 -81.390625 Z M 33.265625 -81.390625 "/></g></g></g><g fill="#000000" fill-opacity="1"><g transform="translate(422.811806, 89.361808)"><g><path d="M 30.09375 -15.609375 C 30.5 -15.867188 30.972656 -16.019531 31.515625 -16.0625 C 31.597656 -15.757812 31.5 -15.457031 31.21875 -15.15625 C 30.9375 -14.863281 30.6875 -14.59375 30.46875 -14.34375 L 29.953125 -13.84375 C 27.890625 -12.070312 25.789062 -10.332031 23.65625 -8.625 C 21.519531 -6.925781 19.203125 -5.488281 16.703125 -4.3125 C 14.203125 -3.132812 11.382812 -2.4375 8.25 -2.21875 L 7.875 -2.203125 C 4.78125 -1.984375 2.320312 -2.75 0.5 -4.5 C -1.132812 -6.15625 -1.796875 -8.238281 -1.484375 -10.75 C -0.367188 -19.144531 4.644531 -24.875 13.5625 -27.9375 C 14.019531 -28.09375 14.492188 -28.1875 14.984375 -28.21875 C 16.441406 -28.320312 17.671875 -27.769531 18.671875 -26.5625 C 19.460938 -25.644531 19.742188 -24.828125 19.515625 -24.109375 C 19.296875 -23.398438 18.9375 -22.664062 18.4375 -21.90625 C 16.21875 -18.769531 12.363281 -16.582031 6.875 -15.34375 C 4.882812 -14.90625 3.632812 -14.023438 3.125 -12.703125 C 2.613281 -11.390625 2.257812 -10.003906 2.0625 -8.546875 L 2.015625 -7.890625 C 1.890625 -7.023438 2.09375 -6.242188 2.625 -5.546875 C 3.34375 -4.691406 4.445312 -4.101562 5.9375 -3.78125 C 7.050781 -3.5625 8.210938 -3.492188 9.421875 -3.578125 C 10.378906 -3.640625 11.304688 -3.789062 12.203125 -4.03125 C 13.109375 -4.28125 14.066406 -4.585938 15.078125 -4.953125 C 18.203125 -6.097656 21.296875 -7.867188 24.359375 -10.265625 C 25.691406 -11.273438 27.003906 -12.460938 28.296875 -13.828125 C 28.421875 -13.898438 28.535156 -14 28.640625 -14.125 C 28.753906 -14.257812 28.863281 -14.390625 28.96875 -14.515625 C 29.144531 -14.710938 29.316406 -14.890625 29.484375 -15.046875 C 29.660156 -15.210938 29.863281 -15.398438 30.09375 -15.609375 Z M 7.71875 -18.6875 L 7.15625 -17.90625 L 8.125 -18.25 C 10.195312 -18.882812 11.945312 -19.644531 13.375 -20.53125 C 14.8125 -21.425781 16.015625 -22.785156 16.984375 -24.609375 L 17.296875 -25.375 L 16.484375 -25.03125 C 14.773438 -24.363281 13.1875 -23.570312 11.71875 -22.65625 C 10.257812 -21.738281 8.925781 -20.414062 7.71875 -18.6875 Z M 7.71875 -18.6875 "/></g></g></g><g fill="#000000" fill-opacity="1"><g transform="translate(453.754234, 87.202899)"><g><path d="M 38.671875 -16.828125 C 39.046875 -16.796875 39.265625 -16.722656 39.328125 -16.609375 C 39.410156 -16.421875 39.304688 -16.195312 39.015625 -15.9375 C 37.960938 -15.257812 36.738281 -14.875 35.34375 -14.78125 C 33.65625 -14.65625 31.875 -14.984375 30 -15.765625 C 28.125 -16.554688 26.492188 -17.625 25.109375 -18.96875 C 23.878906 -20.175781 22.9375 -21.0625 22.28125 -21.625 C 21.632812 -22.1875 20.984375 -22.441406 20.328125 -22.390625 C 19.910156 -22.359375 19.4375 -22.15625 18.90625 -21.78125 C 18.382812 -21.414062 17.75 -20.9375 17 -20.34375 C 14.25 -18.082031 11.6875 -15.632812 9.3125 -13 C 6.945312 -10.375 4.664062 -7.738281 2.46875 -5.09375 L 0.359375 -2.671875 C 0.304688 -2.546875 0.171875 -2.320312 -0.046875 -2 C -0.210938 -1.75 -0.390625 -1.507812 -0.578125 -1.28125 C -0.773438 -1.050781 -1.03125 -0.925781 -1.34375 -0.90625 C -1.695312 -0.882812 -2.164062 -1.035156 -2.75 -1.359375 C -3.4375 -1.804688 -3.765625 -2.285156 -3.734375 -2.796875 C -3.710938 -3.316406 -3.660156 -3.816406 -3.578125 -4.296875 L -3.4375 -4.671875 C -1.539062 -12.523438 0.953125 -19.515625 4.046875 -25.640625 L 4.21875 -25.828125 C 4.375 -26.203125 4.585938 -26.582031 4.859375 -26.96875 C 5.140625 -27.351562 5.460938 -27.554688 5.828125 -27.578125 C 6.066406 -27.597656 6.347656 -27.523438 6.671875 -27.359375 C 7.117188 -27.085938 7.414062 -26.804688 7.5625 -26.515625 C 7.695312 -26.222656 7.710938 -25.90625 7.609375 -25.5625 C 7.515625 -25.21875 7.390625 -24.890625 7.234375 -24.578125 C 7.128906 -24.203125 7.050781 -23.945312 7 -23.8125 L 6.40625 -22.0625 C 6.101562 -21.125 5.785156 -20.171875 5.453125 -19.203125 C 5.128906 -18.242188 4.785156 -17.300781 4.421875 -16.375 C 4.222656 -15.738281 3.992188 -15.109375 3.734375 -14.484375 C 3.472656 -13.859375 3.238281 -13.234375 3.03125 -12.609375 C 2.976562 -12.609375 2.875 -12.359375 2.71875 -11.859375 C 2.570312 -11.367188 2.441406 -10.847656 2.328125 -10.296875 C 2.222656 -9.742188 2.238281 -9.375 2.375 -9.1875 L 2.5625 -9.125 L 2.734375 -9.046875 C 3.335938 -9.203125 3.835938 -9.472656 4.234375 -9.859375 C 4.628906 -10.253906 4.992188 -10.675781 5.328125 -11.125 C 5.441406 -11.257812 5.566406 -11.40625 5.703125 -11.5625 C 5.847656 -11.726562 6.003906 -11.90625 6.171875 -12.09375 L 9.765625 -15.546875 C 10.898438 -16.648438 12.035156 -17.742188 13.171875 -18.828125 C 14.316406 -19.921875 15.460938 -20.992188 16.609375 -22.046875 C 18.160156 -23.367188 19.359375 -24.054688 20.203125 -24.109375 C 20.984375 -24.171875 21.773438 -23.878906 22.578125 -23.234375 C 23.390625 -22.597656 24.421875 -21.617188 25.671875 -20.296875 C 27.046875 -18.816406 28.597656 -17.695312 30.328125 -16.9375 C 32.054688 -16.175781 33.765625 -15.859375 35.453125 -15.984375 C 35.992188 -16.015625 36.53125 -16.109375 37.0625 -16.265625 C 37.25 -16.273438 37.488281 -16.351562 37.78125 -16.5 C 38.195312 -16.707031 38.492188 -16.816406 38.671875 -16.828125 Z M 38.671875 -16.828125 "/></g></g></g></svg>